<svg xmlns="http://www.w3.org/2000/svg" width="1024" height="1024" viewBox="0 0 1024 1024"><path fill="#476eb9" d="M361.594 470.034c-1.456-42.854 3.344-75.816 37.854-105.609a106.9 106.9 0 0 1 45.919-23.433c16.278-3.875 36.1-3.584 52.779-3.53l42.132.167c16.25.069 38.327-.567 53.908.56 19.283-.737 34.337 1.812 49.11 15.457 21.979 20.3 26.375 58.587 4.699 80.729-11.823 12.123-26.939 17.681-43.699 17.616-30.187-.001-60.435-.071-90.623-.069l-27.872-.027c-2.401-.008-11.139.054-13.002-.339-.556.37-1.508.954-1.972 1.372-7.125-1.335-22.408-.236-30.409-.378-18.972-.338-37.793-.824-56.733.924-4.611.426-8.225 1.031-12.231 3.453-5.211 3.15-7.06 10.097-9.86 13.107"/><path fill="#e33d3c" d="M594.186 338.189c19.283-.737 34.337 1.812 49.11 15.457 21.979 20.3 26.375 58.587 4.699 80.729-11.823 12.123-26.939 17.681-43.699 17.616-30.187-.001-60.435-.071-90.623-.069l-27.872-.027c-2.401-.008-11.139.054-13.002-.339 2.334-3.264 12.044-12.584 15.298-15.819l28.734-28.725 36.087-36.426c8.175-8.351 16.485-17.287 25.424-24.807 4.582-3.854 10.158-4.981 15.384-7.375z"/><path fill="#2c4e9b" d="M374.172 400.858c1.851 1.812 1.281 4.773 1.108 7.185l-.623-.49c-.655-2.449-.498-4.173-.485-6.695"/><path fill="#fdc612" d="M472.799 451.556c.637 3.826.35 12.803.32 17.016l-.242 29.893c-.198 23.153.541 49.901-.189 72.552l.285.623.023 62.116c-.001 5.469-.158 11.062.003 16.522.515 17.404-1.963 27.063 15.426 35.742-10.622.689-21.189.427-31.777-.629-47.228-4.709-85.213-40.429-93.162-87.146-1.57-9.227-2.604-18.775-1.535-28.124-.723-3.223-.414-27.882-.401-32.515l.044-67.572c2.8-3.01 4.649-9.957 9.86-13.107 4.006-2.422 7.62-3.027 12.231-3.453 18.94-1.748 37.761-1.262 56.733-.924 8.001.142 23.284-.957 30.409.378.464-.418 1.416-1.002 1.972-1.372"/><path fill="#2c4e9b" d="M361.594 470.034c2.8-3.01 4.649-9.957 9.86-13.107 4.006-2.422 7.62-3.027 12.231-3.453 18.94-1.748 37.761-1.262 56.733-.924 8.001.142 23.284-.957 30.409.378a5081 5081 0 0 0-64.774 64.141c-12.646 12.595-26.648 25.62-37.556 39.765-2.959 3.838-4.501 9.088-6.546 13.287-.723-3.223-.414-27.882-.401-32.515z"/><path fill="#19d688" d="m472.688 571.017 88.418-.487c17.166-.023 44.223-1.485 60.56 2.714 41.931 10.775 53.595 66.677 22.566 95.663-15.487 14.843-30.073 16.08-50.417 16.8-7.089.471-14.867.405-22.016.301-27.714-.403-55.686.536-83.374.012-17.389-8.679-14.911-18.338-15.426-35.742-.161-5.46-.004-11.053-.003-16.522l-.023-62.116z"/><path fill="#12a86c" d="M472.973 571.64c2.941 1.842 16.971 17.225 20.618 20.83l49.694 49.842c8.65 8.662 39.844 42.383 50.53 43.395-7.089.471-14.867.405-22.016.301-27.714-.403-55.686.536-83.374.012-17.389-8.679-14.911-18.338-15.426-35.742-.161-5.46-.004-11.053-.003-16.522z"/></svg>
