<svg xmlns="http://www.w3.org/2000/svg" width="1024" height="1024" viewBox="0 0 1024 1024"><path fill="#476fba" d="M135.935 479.731c-.553-7.009-.076-14.814.35-21.811 2.195-36.013 33.68-64.929 69.177-66.883 22.61-1.245 45.42-.023 68.069-.512 8.223-.164 17.6-.243 25.733.611 13.438-.382 24.325 1.382 34.498 11.09a41.66 41.66 0 0 1 12.799 29.707c.465 25.925-19.877 37.39-43.384 37.543l-64.697-.056c-3.447-.007-21.941-.362-24.034.003l-.567.014-.515.161c-20.91-.47-43.555-.605-64.459.826-8.158.558-8.011 4.959-12.97 9.307"/><path fill="#e43938" d="M299.264 391.136c13.438-.382 24.325 1.382 34.498 11.09a41.66 41.66 0 0 1 12.799 29.707c.465 25.925-19.877 37.39-43.384 37.543l-64.697-.056c-3.447-.007-21.941-.362-24.034.003l-.567.014c2.114-2.877 8.764-9.207 11.464-11.89l21.863-21.634 22.642-22.686c5.234-5.294 11.044-11.121 16.76-15.908 2.759-2.311 8.958-4.408 12.656-6.183"/><path fill="#fdc80e" d="m213.879 469.437.567-.014c.081 27.09.739 57.317-.018 84.122l.105 1.302c.695 15.233-.084 30.749.193 46.008.138 7.606-.495 15.477.918 22.971.887 4.633 5.666 7.216 9.455 9.308-2.367.447-9.046.415-11.532.379-21.504-.309-42.215-7.175-57.24-23.075-14.98-15.852-20.693-36.054-20.251-57.479-.414-6.611-.033-17.602-.027-24.459l-.114-48.769c4.959-4.348 4.812-8.749 12.97-9.307 20.904-1.431 43.549-1.296 64.459-.826z"/><path fill="#294d9b" d="M135.935 479.731c4.959-4.348 4.812-8.749 12.97-9.307 20.904-1.431 43.549-1.296 64.459-.826l-43.614 42.924c-9.589 9.34-20.21 18.942-28.62 29.36-2.108 2.611-3.773 7.837-5.054 11.077-.414-6.611-.033-17.602-.027-24.459z"/><path fill="#17da8a" d="m214.428 553.545 63.898-.096c6.952-.004 14.247.115 21.171.002 14.134-.23 24.5.486 35.013 10.944a40.35 40.35 0 0 1 11.853 28.813 40.42 40.42 0 0 1-12.598 28.517c-11.408 10.981-22.953 11.717-37.779 11.382-21.376.469-49.712.796-70.887.027-3.789-2.092-8.568-4.675-9.455-9.308-1.413-7.494-.78-15.365-.918-22.971-.277-15.259.502-30.775-.193-46.008z"/><path fill="#0fab6c" d="M214.533 554.847c4.483 3.21 16.316 15.768 20.599 20.093 15.716 15.87 31.449 31.818 47.209 47.653 2.846 2.86 13.034 8.237 13.645 10.514-21.376.469-49.712.796-70.887.027-3.789-2.092-8.568-4.675-9.455-9.308-1.413-7.494-.78-15.365-.918-22.971-.277-15.259.502-30.775-.193-46.008"/><path fill="#323233" d="M712.148 456.203c10.288-.686 21.368-.103 31.795-.194 10.059-.088 20.12-.409 30.201.707 5.9.653 9.349 8.081 8.432 13.571-3.97 10.2-19.062 6.852-26.74 7.51-5.66.485-32.662-1.306-35.553.435a655 655 0 0 0-.307 23.737c8.426-.247 48.672-2.745 51.977 4.359 13.377 28.754-50.089 8.148-51.975 18.547l.005 22.142c10.941-.18 49.688-2.31 57.268 1.749 2.126 1.138 3.635 3.132 4.336 5.419 1.024 3.342.42 7.021-1.354 10-1.263 2.122-3.339 3.136-5.681 3.689-5.481 1.294-53.455 1.093-60.573.353-3.081-.32-6.392-1.063-9.032-2.747-3.264-2.082-5.304-5.723-6.076-9.453-2.129-10.297-.462-30.569-.397-41.707.087-14.74-1.121-30.128.524-44.778.298-2.652.765-4.744 2.278-7 2.619-3.904 6.487-5.358 10.872-6.339"/><path fill="#323233" d="M526.7 455.589c7.392-.355 9.645.563 13.832 6.583.587 14.089.056 26.956-.051 41.016 17.778.356 37.119-.063 55.055-.086-.135-12.424-.672-26.901.349-39.314.469-5.705 8.505-9.54 14.129-7.687a10.29 10.29 0 0 1 6.323 5.906c2.018 4.866 1.146 85.363.758 96.68-.038 1.127-.434 2.767-.958 3.854-1.544 3.205-3.733 4.235-6.872 5.442-6.829 1.054-12.754-2.118-13.385-9.527-1.039-12.215-.479-25.289-.4-37.621-17.641-.653-37.203-.302-54.991-.301.272 9.794 3.696 36.936-3.624 45.341-4.301 4.938-12.264 2.405-16.712-2.632-1.515-9.618-2.317-94.792-.081-101.782 1.004-3.137 3.903-4.49 6.628-5.872"/><path fill="#323233" d="M447.89 455.685a60.64 60.64 0 0 1 29.213 5.553c9.014 4.179 25.588 16.387 7.799 25.355-7.274 2.193-15.637-5.693-22.222-7.609-26.478-7.705-51.509 15.358-43.714 42.838a32.58 32.58 0 0 0 15.527 19.694c10.403 5.803 23.587 6.257 34.233.914 5.036-2.528 7.55-5.385 13.391-6.883 4.211.716 11.705 3.857 11.821 8.107.384 14.051-25.496 23.124-34.624 24.342a57.95 57.95 0 0 1-42.855-11.398c-34.043-26.33-25.885-83.798 15.292-97.649 5.662-1.904 10.218-2.598 16.139-3.264"/><path fill="#323233" d="M819.359 456.665c1.848-.132 7.493-.432 9.109-.26 13.407 1.425 44.316-2.58 55.726 2.019 4.452 4.562 6.14 11.417 1.355 16.341-4.745 4.882-15.613 3.292-22.045 3.336l-34.985.391-.007 24.401c6.362-.857 15.261-.384 21.885-.438 9.395-.076 41.949-3.423 30.046 15.227-5.243 4.099-16.876 3.008-23.385 2.974q-14.304-.144-28.61-.077-.07 11.442-.021 22.884c.038 4.924.323 9.906-.159 14.805-.944 9.59-6.118 10.045-14.069 10.187-6.239-4.447-7.149-6.59-7.13-14.236.067-27.048-.326-54.118.046-81.161.13-9.48 2.77-13.765 12.244-16.393"/><path fill="#323233" d="M653.866 456.139c2.07-.295 4.032-.307 6.106.016 2.269.354 5.674 1.331 6.881 3.53 1.988 3.622 2.282 96.237.981 101.746-.798 3.38-3.696 4.959-6.459 6.576-9.285.621-13.448-1.39-13.789-11.184-1.01-28.992-.565-58.035-.468-87.041.024-7.362.006-10.046 6.748-13.643"/></svg>
